<svg t="1718124625806" class="icon" viewBox="0 0 2332 1024" version="1.1" xmlns="http://www.w3.org/2000/svg" p-id="3125" width="200" height="200"><path d="M1800.969308 322.460675c6.141025 1.023504 53.904553-9.495844 55.951561-6.027303 3.070513 4.548907 24.450377 155.913802 18.764244 156.937306-5.572412 0.966643-45.204767 10.007596-45.204768 10.007597-3.070513-20.583806-28.999285-147.839491-29.511037-160.9176m76.307922-14.499643l20.811252 162.850886c10.689932-0.511752 53.904553-3.525403 57.998569-3.980294a19146.919937 19146.919937 0 0 0-16.774096-158.870592 161.486213 161.486213 0 0 0-62.035725 0M1836.052757 533.928008s94.105522-23.597457 128.165466-12.054604c17.285848 61.637696 48.787032 407.468382 51.857545 421.513133-21.379865 2.501899-91.546762 8.529201-97.119174 10.007597-4.548907-26.042495-82.903838-402.919475-82.903837-419.466126m348.332585-207.543901c5.572412 1.535256 55.382948-4.946937 55.8947-1.478395 1.023504 12.054605 6.141025 157.392197 0.568614 157.903949l-45.318491 3.980294c-0.966643-20.015193-12.168327-146.815987-11.144823-160.348986m76.762813-3.980294l4.094017 160.860738c10.633071 0 53.335939 2.501899 57.941708 1.990147-1.023504-61.637696 0-158.870592 0-158.870591a284.932188 284.932188 0 0 0-62.035725-3.980294M2195.530165 538.476916s96.095669-12.509495 128.677219 2.501899c7.107668 72.213905 6.084164 408.491886 7.107668 422.479776-21.891617 0-91.546762 1.023504-97.119174 2.047009-1.023504-26.099356-40.144108-410.538894-38.665713-427.028684m-223.18077-413.495685c55.439809 278.677441 97.630925 754.777463 99.166182 785.368866 0 0 43.726373 1.023504 93.025157 3.980294-28.999285-300.171028-64.594485-779.796454-64.082734-795.319601-12.168327-13.533-128.108605 5.970441-128.108605 5.970441M1850.268092 784.117916c-10.689932-78.184346-294.428033-166.888041-454.094683-138.343647 0 0-19.787747-172.403591-27.464028-339.291632a3414.182463 3414.182463 0 0 1 0.568613-305.74344c-10.689932-7.505697-125.663567 46.626301-187.642431 69.200255 0 0 74.204052 309.723734 128.108605 952.256906 0 0 85.917489 8.984092 233.415812-19.04855 147.441462-28.089503 321.8352-115.769694 307.051251-219.029892m-346.740468 140.845546l-24.905268-176.952498c6.084164-3.013651 159.154898 53.165355 175.417242 63.172951-2.55876 11.0311-150.511974 113.722685-150.511974 113.722686M619.333745 322.517536c6.084164 1.023504 53.847692-9.495844 55.8947-6.027302 3.070513 4.548907 24.450377 155.913802 18.821104 156.937306-5.572412 0.966643-45.261629 10.007596-45.261628 10.007596-3.013651-20.583806-28.999285-147.839491-29.454176-160.9176m76.194199-14.499642L716.452918 470.811918c10.633071-0.511752 53.847692-3.525403 57.941709-3.980294-6.595916-61.637696-16.774096-158.870592-16.774097-158.870592a161.486213 161.486213 0 0 0-62.035724 0m-41.167613 226.023838s94.048661-23.597457 128.108606-12.054605c17.285848 61.637696 48.843893 407.468382 51.857544 421.513134-21.323004 2.501899-91.546762 8.529201-97.119173 10.007596-4.548907-26.042495-82.846976-402.919475-82.846977-419.466125m348.275725-207.543901c5.572412 1.535256 55.439809-4.946937 55.951561-1.478395 1.023504 12.054605 6.084164 157.392197 0.511752 157.903948l-45.261629 3.980294c-1.023504-20.015193-11.713437-146.815987-11.201684-160.348986m76.762812-3.980294l4.094017 160.860739c10.689932 0 53.392801 2.501899 57.99857 1.990147-1.080366-61.637696 0-158.870592 0-158.870592a320.072498 320.072498 0 0 0-62.092587-3.980294M1013.894602 538.476916s96.095669-12.509495 128.620357 2.501899c7.107668 72.213905 6.084164 408.491886 7.107668 422.479776-21.834756 0-91.546762 1.023504-97.119173 2.047009-0.511752-26.099356-40.144108-410.538894-38.665713-427.028684m-223.18077-413.495685C846.09678 403.715533 888.287896 879.758695 889.880014 910.350097c0 0 43.726373 1.023504 93.025156 3.980294-28.999285-300.171028-64.537624-779.796454-64.025872-795.831353-12.225189-13.078109-128.165467 6.482193-128.165466 6.482193M668.68939 784.117916c-10.689932-78.184346-294.428033-166.888041-454.037821-138.343647 0 0-19.90147-172.403591-27.464029-339.291632A3414.182463 3414.182463 0 0 1 187.642431 0.682336C176.952499-6.254748 61.978864 47.308637 0 69.939452c0 0 74.260914 309.723734 128.108605 952.256906 0 0 85.97435 8.984092 233.415812-19.04855 147.441462-28.089503 321.8352-115.769694 307.108112-219.029892M321.8352 924.906601l-24.905268-176.952499c6.141025-3.013651 159.21176 53.165355 175.417242 63.172952-2.501899 11.0311-150.511974 113.722685-150.511974 113.722685" fill="#d4237a" p-id="3126"></path></svg>