<svg t="1718602344779" class="icon" viewBox="0 0 1024 1024" version="1.1" xmlns="http://www.w3.org/2000/svg" p-id="1178" width="32" height="32"><path d="M896 736v-448c0-54.4-41.6-96-96-96h-576C169.6 192 128 233.6 128 288v448c0 54.4 41.6 96 96 96h576c54.4 0 96-41.6 96-96zM800 128C889.6 128 960 198.4 960 288v448c0 89.6-70.4 160-160 160h-576C134.4 896 64 825.6 64 736v-448C64 198.4 134.4 128 224 128h576zM419.2 544V326.4h60.8v240c0 96-57.6 144-147.2 144S192 665.6 192 569.6V326.4h60.8v217.6c0 51.2 3.2 108.8 83.2 108.8s83.2-57.6 83.2-108.8z m288-38.4c28.8 0 60.8-16 60.8-60.8 0-48-28.8-60.8-60.8-60.8H614.4v121.6h92.8z m3.2-179.2c102.4 0 121.6 70.4 121.6 115.2 0 48-19.2 115.2-121.6 115.2H614.4V704h-60.8V326.4h156.8z" fill="#000000" p-id="1179"></path></svg>